<svg width="400" height="401" viewBox="0 0 400 401" fill="none" xmlns="http://www.w3.org/2000/svg">
<path d="M0.00012207 200.25C0.000126708 147.207 21.0715 96.336 58.5788 58.8287C96.086 21.3214 146.957 0.250067 200 0.250061C253.043 0.250055 303.914 21.3214 341.421 58.8287C378.929 96.3359 400 147.207 400 200.25L360 200.25C360 157.815 343.143 117.119 313.137 87.1129C283.131 57.1071 242.435 40.25 200 40.25C157.565 40.2501 116.869 57.1071 86.863 87.113C56.8572 117.119 40.0001 157.815 40.0001 200.25L0.00012207 200.25Z" fill="white"/>
<path d="M-0.00012207 200.25C-0.000117433 253.293 21.0712 304.164 58.5785 341.671C96.0858 379.179 146.957 400.25 200 400.25C253.043 400.25 303.914 379.179 341.421 341.671C378.928 304.164 400 253.293 400 200.25L360 200.25C360 242.685 343.143 283.381 313.137 313.387C283.131 343.393 242.434 360.25 200 360.25C157.565 360.25 116.869 343.393 86.8628 313.387C56.857 283.381 39.9999 242.685 39.9999 200.25L-0.00012207 200.25Z" fill="#FFC450"/>
</svg>
