<svg width="148" height="40" viewBox="0 0 148 40" fill="none" xmlns="http://www.w3.org/2000/svg">
<path d="M133.269 39.9992C125.07 39.9992 118.862 34.2647 118.862 25.0704C118.862 15.8288 125.26 10.1416 133.364 10.1416C141.563 10.1416 147.866 15.8288 147.866 25.0704C147.866 34.2173 141.468 39.9992 133.269 39.9992ZM133.269 36.7291C138.767 36.7291 144.075 32.9851 144.075 25.023C144.075 17.061 138.862 13.3169 133.317 13.3169C127.772 13.3169 122.653 17.061 122.653 25.023C122.653 33.0325 127.724 36.7291 133.269 36.7291Z" fill="#6943A8"/>
<path d="M109.667 2.7014C109.667 1.09004 110.9 0 112.369 0C113.838 0 115.07 1.13743 115.07 2.7014C115.07 4.31277 113.838 5.4502 112.369 5.4502C110.9 5.4976 109.667 4.31277 109.667 2.7014ZM110.52 10.9478H114.264V39.9524H110.52V10.9478Z" fill="#6943A8"/>
<path d="M100.71 23.4125C100.71 16.967 97.2032 13.6969 91.8952 13.6969C86.4923 13.6969 82.7009 17.1092 82.7009 24.1707V40H78.9568V10.9481H82.7009V15.877C84.5492 12.2751 88.2933 10.4268 92.6061 10.4268C99.1937 10.4268 104.407 14.4552 104.407 22.9859V40H100.758V23.4125H100.71Z" fill="#6943A8"/>
<path d="M59.6679 39.9992C51.4689 39.9992 45.2604 34.2647 45.2604 25.0704C45.2604 15.8288 51.6584 10.1416 59.7627 10.1416C67.9617 10.1416 74.2649 15.8288 74.2649 25.0704C74.3123 34.2173 67.8669 39.9992 59.6679 39.9992ZM59.6679 36.7291C65.1655 36.7291 70.4735 32.9851 70.4735 25.023C70.4735 17.061 65.2603 13.3169 59.7153 13.3169C54.1703 13.3169 49.0518 17.061 49.0518 25.023C49.0518 33.0325 54.1703 36.7291 59.6679 36.7291Z" fill="#6943A8"/>
<path d="M33.5543 40H29.8102V10.9481H33.5543V16.1139C35.1657 12.5594 38.4832 10.4268 43.5068 10.4268V14.313H42.5116C37.6775 14.313 33.6017 16.4931 33.6017 23.7916V40H33.5543Z" fill="#6943A8"/>
<path d="M1.13763 20.2367L15.4977 4.12305H21.9432L7.34613 20.2367L25.4029 39.9522H18.7205L2.46464 21.9428L1.13763 20.2367Z" fill="#6943A8"/>
<path d="M5.16584 33.9815V40.0004H0V28.2469L5.16584 33.9815ZM0 12.4177V0.474609H5.16584V6.63571L0 12.4177Z" fill="#6943A8"/>
</svg>
