<svg width="80" height="40" viewBox="0 0 80 40" fill="none" xmlns="http://www.w3.org/2000/svg">
<path d="M43.9863 19.802C43.9863 14.5502 45.4345 9.51346 48.0123 5.79987C50.5901 2.08627 54.0864 5.63438e-07 57.732 0C61.3776 -5.63437e-07 64.8738 2.08627 67.4517 5.79986C70.0295 9.51345 71.4777 14.5502 71.4777 19.802L68.7285 19.802C68.7285 15.6005 67.57 11.5712 65.5077 8.60029C63.4455 5.62941 60.6484 3.9604 57.732 3.9604C54.8155 3.9604 52.0185 5.62942 49.9562 8.60029C47.894 11.5712 46.7354 15.6005 46.7354 19.802L43.9863 19.802Z" fill="#FFC450"/>
<path d="M44.2612 19.802C44.2612 25.0538 45.6804 30.0905 48.2067 33.8041C50.7329 37.5177 54.1593 39.604 57.732 39.604C61.3046 39.604 64.731 37.5177 67.2573 33.8041C69.7835 30.0906 71.2028 25.0538 71.2028 19.802L69.1821 19.802C69.1821 24.2661 67.9758 28.5473 65.8285 31.7038C63.6811 34.8604 60.7687 36.6337 57.732 36.6337C54.6952 36.6337 51.7828 34.8604 49.6355 31.7038C47.4881 28.5473 46.2818 24.2661 46.2818 19.802L44.2612 19.802Z" fill="white"/>
<path d="M9.34717 20.198C9.34717 14.9462 10.7954 9.90945 13.3732 6.19586C15.951 2.48227 19.4473 0.395997 23.0929 0.395996C26.7385 0.395996 30.2347 2.48227 32.8126 6.19586C35.3904 9.90945 36.8386 14.9462 36.8386 20.198L34.0894 20.198C34.0894 15.9965 32.9309 11.9672 30.8686 8.99628C28.8064 6.02541 26.0093 4.35639 23.0929 4.35639C20.1764 4.35639 17.3794 6.02541 15.3171 8.99628C13.2549 11.9672 12.0963 15.9965 12.0963 20.198L9.34717 20.198Z" fill="white"/>
<path d="M9.62207 20.198C9.62207 25.4498 11.0413 30.4865 13.5676 34.2001C16.0938 37.9137 19.5202 40 23.0929 40C26.6655 40 30.0919 37.9137 32.6181 34.2001C35.1444 30.4865 36.5636 25.4498 36.5637 20.198L34.543 20.198C34.543 24.6621 33.3367 28.9433 31.1894 32.0998C29.042 35.2564 26.1296 37.0297 23.0929 37.0297C20.0561 37.0297 17.1437 35.2564 14.9964 32.0998C12.849 28.9433 11.6427 24.6621 11.6427 20.198L9.62207 20.198Z" fill="#FFC450"/>
<path d="M72.3025 18.2377C72.3025 17.1331 73.1979 16.2377 74.3025 16.2377H77.8008V24.1585H74.3025C73.1979 24.1585 72.3025 23.263 72.3025 22.1585V18.2377Z" fill="white"/>
<rect x="77.2508" y="8.31689" width="2.74914" height="18.6139" rx="1.37457" fill="white"/>
<path d="M3.22583 16H6.7097C7.81427 16 8.7097 16.8954 8.7097 18V22C8.7097 23.1046 7.81427 24 6.7097 24H3.22583V16Z" fill="white"/>
<path d="M6.45161 16C6.45161 17.5823 6.26242 19.129 5.90797 20.4446C5.55351 21.7602 5.04971 22.7855 4.46027 23.391C3.87083 23.9965 3.22223 24.155 2.59648 23.8463C1.97074 23.5376 1.39595 22.7757 0.944817 21.6569C0.49368 20.538 0.186451 19.1126 0.061983 17.5607C-0.0624855 16.0089 0.00139624 14.4003 0.24555 12.9385C0.489704 11.4767 0.903163 10.2273 1.43364 9.34824C1.96413 8.46919 2.5878 8 3.22581 8L3.22581 16H6.45161Z" fill="white"/>
<rect x="37.6633" y="16.2377" width="5.49828" height="7.92079" rx="2" fill="white"/>
<g clip-path="url(#clip0_35_293)">
<rect width="3.22581" height="4.70588" transform="translate(38.7097 17.8824)" fill="white"/>
<path d="M39.6235 18.6168C39.5179 18.6168 39.4311 18.5819 39.363 18.512C39.2974 18.4393 39.2645 18.3506 39.2645 18.2457C39.2645 18.1382 39.2974 18.0494 39.363 17.9795C39.4311 17.9069 39.5179 17.8706 39.6235 17.8706C39.7267 17.8706 39.8111 17.9069 39.8768 17.9795C39.9449 18.0494 39.9789 18.1382 39.9789 18.2457C39.9789 18.3506 39.9449 18.4393 39.8768 18.512C39.8111 18.5819 39.7267 18.6168 39.6235 18.6168ZM39.9261 21.392C39.9261 21.6689 39.8651 21.8679 39.7431 21.9889C39.6211 22.1126 39.451 22.1745 39.2328 22.1745H38.9971V21.5896H39.1413C39.207 21.5896 39.254 21.5748 39.2821 21.5452C39.3103 21.5156 39.3243 21.4672 39.3243 21.4V18.8508H39.9261V21.392ZM41.1576 21.1338C40.9863 21.1338 40.8338 21.1002 40.7001 21.033C40.5664 20.9657 40.4608 20.8743 40.3834 20.7587C40.306 20.6404 40.2626 20.5086 40.2532 20.3634H40.8479C40.8549 20.4414 40.8866 20.5046 40.9429 20.553C40.9992 20.6014 41.0684 20.6256 41.1505 20.6256C41.2256 20.6256 41.2831 20.6094 41.323 20.5772C41.3652 20.5422 41.3863 20.4978 41.3863 20.4441C41.3863 20.3795 41.357 20.3325 41.2983 20.3029C41.2397 20.2706 41.1447 20.2356 41.0133 20.198C40.8725 20.1604 40.7552 20.1214 40.6614 20.081C40.5675 20.038 40.4866 19.9721 40.4186 19.8834C40.3505 19.792 40.3165 19.6696 40.3165 19.5163C40.3165 19.3872 40.347 19.2703 40.408 19.1654C40.4714 19.0578 40.5629 18.9731 40.6825 18.9113C40.8045 18.8494 40.9488 18.8185 41.1153 18.8185C41.3617 18.8185 41.5552 18.8884 41.696 19.0283C41.8391 19.1681 41.9212 19.3536 41.9423 19.5849H41.3863C41.3769 19.5069 41.3464 19.4451 41.2948 19.3993C41.2455 19.3536 41.1799 19.3308 41.0977 19.3308C41.0274 19.3308 40.9734 19.3469 40.9359 19.3792C40.8983 19.4088 40.8796 19.4504 40.8796 19.5042C40.8796 19.5688 40.9089 19.6172 40.9675 19.6494C41.0285 19.6817 41.1224 19.714 41.2491 19.7462C41.3945 19.7893 41.513 19.8323 41.6045 19.8753C41.696 19.9156 41.7758 19.9829 41.8438 20.077C41.9142 20.1684 41.9505 20.2921 41.9529 20.4481C41.9529 20.5798 41.92 20.6982 41.8543 20.803C41.791 20.9052 41.6983 20.9859 41.5763 21.0451C41.4567 21.1042 41.3171 21.1338 41.1576 21.1338Z" fill="black"/>
</g>
<defs>
<clipPath id="clip0_35_293">
<rect width="3.22581" height="4.70588" fill="white" transform="translate(38.7097 17.8824)"/>
</clipPath>
</defs>
</svg>
