<svg width="401" height="400" viewBox="0 0 401 400" fill="none" xmlns="http://www.w3.org/2000/svg">
<g clip-path="url(#clip0_25_826)">
<path d="M353.488 398.441L353.497 397.975C353.677 390.154 355.308 382.472 358.276 375.465C361.245 368.457 365.479 362.291 370.685 357.396C373.624 354.677 376.844 352.403 380.267 350.627L380.594 350.457L380.65 350.87C381.313 355.809 382.363 360.849 382.852 363.086L386.131 348.088L386.495 347.965C388.166 347.39 389.945 347.414 391.604 348.036C393.262 348.657 394.724 349.846 395.801 351.45C396.925 353.054 397.613 355.016 397.777 357.083C397.941 359.15 397.573 361.228 396.721 363.047C395.957 364.717 395.205 366.458 394.479 368.143C391.982 373.93 389.4 379.915 385.638 384.564C382.761 388.051 379.256 390.74 375.379 392.436C371.502 394.131 367.351 394.79 363.228 394.364L353.488 398.441Z" fill="#F2F2F2"/>
<path d="M312.606 391.505L306.901 391.504L304.186 365.705L312.607 365.705L312.606 391.505Z" fill="#FFB6B6"/>
<path d="M312.807 398.483L295.261 398.482V398.222C295.261 396.098 295.98 394.062 297.261 392.561C298.542 391.059 300.279 390.216 302.09 390.216H302.091L305.296 387.365L311.276 390.216L312.807 390.216L312.807 398.483Z" fill="#2F2E41"/>
<path d="M371.669 372.661L367.161 376.761L351.522 358.331L358.175 352.279L371.669 372.661Z" fill="#FFB6B6"/>
<path d="M375.477 378.028L361.615 390.639L361.479 390.434C360.369 388.756 359.872 386.631 360.099 384.524C360.325 382.417 361.256 380.503 362.687 379.201L362.687 379.2L363.729 374.645L369.944 372.599L371.154 371.498L375.477 378.028Z" fill="#2F2E41"/>
<path d="M346.987 247.834C346.987 247.834 346.598 254.819 346.107 264.804C346.026 266.442 346.501 268.221 346.417 270.003C346.36 271.185 345.745 272.334 345.688 273.566C345.628 274.867 346.477 276.018 346.417 277.363C346.358 278.677 345.389 280.184 345.33 281.53C344.701 296.006 342.421 313.336 344.704 318.181C345.83 320.569 362.97 353.646 362.97 353.646C362.97 353.646 354.979 367.698 352.696 363.014C349.68 356.827 326.438 327.884 326.438 322.357C326.438 316.836 321.061 275.463 321.061 275.463L317.312 299.947L315.592 304.798L316.133 307.646L315.022 311.49L314.962 315.293L313.88 322.357C313.88 322.357 317.134 377.387 315.301 378.919C313.463 380.458 304.564 383.222 303.514 380.458C302.469 377.695 298.468 323.026 298.468 323.026C298.468 323.026 297.372 297.973 296.185 274.687C296.116 273.335 295.306 271.702 295.243 270.371C295.169 268.825 295.682 266.817 295.614 265.318C295.54 263.599 294.889 262.388 294.826 260.742C294.341 248.021 294.267 237.997 295.134 236.472C297.754 231.868 300.112 228.188 300.112 228.188C300.112 228.188 337.558 217.441 346.988 231.252L346.987 247.834Z" fill="#2F2E41"/>
<path d="M313.309 116.099L322.338 115.507L329.142 119.861L348.064 245.47C348.064 245.47 328.721 255.95 316.734 251.936C304.747 247.921 292.123 248.147 292.123 248.147L301.322 128.144L308.743 120.114L313.309 116.099Z" fill="#E6E6E6"/>
<path d="M328.372 118.762L342.347 125.452C344.493 125.575 346.541 126.546 348.156 128.206C349.771 129.867 350.859 132.12 351.243 134.598L350.316 166.953L345.275 182.344L348.869 217.408L346.988 221.824L348.614 226.332C346.227 230.875 346.713 236.827 348.129 243.237H346.417L342.992 242.568C342.992 242.568 335.451 245.636 333.907 234.615C329.863 205.764 327.58 218.478 327.58 218.478L325.589 128.965L328.372 118.762Z" fill="#3F3D56"/>
<path d="M309.313 118.776L296.258 134.82C294.112 134.943 292.065 135.914 290.45 137.574C288.835 139.235 287.746 141.488 287.363 143.966L292.76 193.72L290.227 212.811L291.618 217.14L290.611 222.033L292.189 226.508L291.047 232.53L292.76 241.229L301.322 238.553L301.256 231.418L303.54 134.392L309.313 118.776Z" fill="#3F3D56"/>
<path d="M265.775 201.252L247.992 216.38C247.31 216.421 246.651 216.672 246.078 217.108C245.506 217.543 245.042 218.148 244.732 218.86C244.423 219.573 244.279 220.369 244.315 221.167C244.351 221.966 244.566 222.739 244.938 223.409C245.31 224.079 245.827 224.623 246.435 224.985C247.043 225.347 247.722 225.515 248.403 225.471C249.084 225.428 249.744 225.175 250.315 224.738C250.886 224.301 251.349 223.695 251.658 222.982L275.84 207.848L265.775 201.252Z" fill="#FFB6B6"/>
<path d="M290.476 137.512C287.096 139.339 278.747 186.126 276.296 187.118C273.846 188.11 274.781 187.961 274.437 188.789C274.094 189.617 274.01 193.325 271.658 193.761C269.305 194.196 256.876 207.479 256.876 207.479L260.027 219.791C260.027 219.791 283.945 203.773 290.54 194.902C297.135 186.032 300.686 140.414 300.686 140.414L301.36 135.863C301.36 135.863 293.856 135.684 290.476 137.512Z" fill="#3F3D56"/>
<path d="M344.112 195.075L328.263 212.915C327.593 213.066 326.969 213.42 326.453 213.944C325.937 214.467 325.548 215.14 325.324 215.896C325.101 216.651 325.051 217.463 325.181 218.248C325.31 219.033 325.613 219.765 326.06 220.369C326.507 220.973 327.082 221.428 327.727 221.689C328.371 221.95 329.063 222.007 329.733 221.855C330.403 221.703 331.027 221.346 331.541 220.822C332.056 220.297 332.444 219.623 332.666 218.866L354.852 199.993L344.112 195.075Z" fill="#FFB6B6"/>
<path d="M346.417 141.526C343.282 143.879 355.193 178.008 352.882 179.385C350.57 180.761 351.48 180.463 351.236 181.338C350.992 182.214 351.343 185.9 349.063 186.709C346.784 187.518 336.024 202.672 336.024 202.672L340.583 214.362C340.583 214.362 362.404 194.654 367.901 184.808C373.397 174.963 369.82 171.638 369.82 171.638C363.001 154.66 356.623 126.972 346.988 128.813C346.988 128.813 349.551 139.173 346.417 141.526Z" fill="#3F3D56"/>
<path d="M315.246 113.45C323.696 113.45 330.547 105.419 330.547 95.5122C330.547 85.6056 323.696 77.5747 315.246 77.5747C306.795 77.5747 299.944 85.6056 299.944 95.5122C299.944 105.419 306.795 113.45 315.246 113.45Z" fill="#FFB6B6"/>
<path d="M330.741 107.07C330.741 107.07 327.371 108.153 325.409 108.756C325.511 107.046 326.143 105.444 326.464 103.771C326.785 102.097 326.715 100.129 325.654 98.947C324.593 97.7654 322.383 98.2258 322.212 99.9261C321.315 97.6761 320.415 95.422 319.514 93.1638C316.944 99.3648 311.69 94.0804 305.961 95.6473C303.038 96.4543 299.376 96.1076 297.832 93.0889C298.699 92.2352 299.43 91.2071 299.99 90.0528C299.1 90.3591 298.173 90.4967 297.246 90.4604C297.267 89.3806 297.509 88.3226 297.952 87.3753C298.395 86.428 299.025 85.6193 299.79 85.0171C300.614 84.3856 298.574 82.1386 299.293 81.3476C300.768 79.7332 301.758 80.8295 302.629 78.7015C303.191 77.3857 304.057 76.2811 305.128 75.5136C306.199 74.746 307.432 74.3463 308.687 74.36C311.191 74.4287 315.678 74.4004 316.65 77.1048C319.746 74.7287 324.057 75.4 327.083 77.8926C329.599 79.9564 332.462 86.1946 333.094 89.7162C333.726 93.2377 332.333 104.001 330.741 107.07Z" fill="#2F2E41"/>
<path d="M141.207 67.5859H43.2268C41.4645 67.6124 39.7591 66.8554 38.4539 65.4673C37.1486 64.0792 36.3404 62.163 36.1919 60.1044C36.1283 59.0064 36.2579 57.9048 36.5725 56.8679C36.8872 55.8311 37.3802 54.881 38.021 54.0768C38.6618 53.2725 39.4367 52.6311 40.2976 52.1924C41.1586 51.7537 42.0873 51.527 43.0261 51.5264H141.207C143.024 51.5264 144.766 52.3724 146.051 53.8782C147.335 55.3841 148.057 57.4265 148.057 59.5561C148.057 61.6857 147.335 63.7281 146.051 65.234C144.766 66.7399 143.024 67.5859 141.207 67.5859H141.207Z" fill="#FFC450"/>
<path d="M197.568 80.6342H36.4617C36.3103 80.6342 36.1651 80.5637 36.058 80.4382C35.951 80.3127 35.8909 80.1425 35.8909 79.965C35.8909 79.7876 35.951 79.6174 36.058 79.4919C36.1651 79.3664 36.3103 79.2959 36.4617 79.2959H197.568C197.719 79.2959 197.864 79.3664 197.971 79.4919C198.078 79.6174 198.139 79.7876 198.139 79.965C198.139 80.1425 198.078 80.3127 197.971 80.4382C197.864 80.5637 197.719 80.6342 197.568 80.6342Z" fill="#E6E6E6"/>
<path d="M190.868 67.9205H43.0261C41.1337 67.9205 39.3189 67.0393 37.9807 65.4707C36.6426 63.9021 35.8909 61.7746 35.8909 59.5562C35.8909 57.3379 36.6426 55.2104 37.9807 53.6417C39.3189 52.0731 41.1337 51.1919 43.0261 51.1919H190.868C192.761 51.1919 194.576 52.0731 195.914 53.6417C197.252 55.2104 198.004 57.3379 198.004 59.5562C198.004 61.7746 197.252 63.9021 195.914 65.4707C194.576 67.0393 192.761 67.9205 190.868 67.9205V67.9205ZM43.0261 52.5302C41.4365 52.5302 39.912 53.2704 38.788 54.5881C37.664 55.9057 37.0325 57.6928 37.0325 59.5562C37.0325 61.4196 37.664 63.2067 38.788 64.5244C39.912 65.842 41.4365 66.5823 43.0261 66.5823H190.868C192.458 66.5823 193.982 65.842 195.106 64.5244C196.231 63.2067 196.862 61.4196 196.862 59.5562C196.862 57.6928 196.231 55.9057 195.106 54.5881C193.982 53.2704 192.458 52.5302 190.868 52.5302H43.0261Z" fill="#3F3D56"/>
<path d="M97.2539 130.486H43.2267C41.4645 130.512 39.7591 129.755 38.4539 128.367C37.1486 126.979 36.3404 125.063 36.1919 123.004C36.1283 121.906 36.2579 120.804 36.5725 119.768C36.8872 118.731 37.3802 117.781 38.021 116.976C38.6618 116.172 39.4367 115.531 40.2976 115.092C41.1586 114.653 42.0873 114.427 43.0261 114.426H97.2539C99.0706 114.426 100.813 115.272 102.098 116.778C103.382 118.284 104.104 120.326 104.104 122.456C104.104 124.585 103.382 126.628 102.098 128.134C100.813 129.64 99.0706 130.486 97.2539 130.486H97.2539Z" fill="#FFC450"/>
<path d="M197.568 143.534H36.4617C36.3103 143.534 36.1651 143.464 36.058 143.338C35.951 143.213 35.8909 143.042 35.8909 142.865C35.8909 142.687 35.951 142.517 36.058 142.392C36.1651 142.266 36.3103 142.196 36.4617 142.196H197.568C197.719 142.196 197.864 142.266 197.971 142.392C198.078 142.517 198.139 142.687 198.139 142.865C198.139 143.042 198.078 143.213 197.971 143.338C197.864 143.464 197.719 143.534 197.568 143.534Z" fill="#E6E6E6"/>
<path d="M190.868 130.82H43.0261C41.1337 130.82 39.3189 129.939 37.9807 128.37C36.6426 126.802 35.8909 124.674 35.8909 122.456C35.8909 120.238 36.6426 118.11 37.9807 116.541C39.3189 114.973 41.1337 114.092 43.0261 114.092H190.868C192.761 114.092 194.576 114.973 195.914 116.541C197.252 118.11 198.004 120.238 198.004 122.456C198.004 124.674 197.252 126.802 195.914 128.37C194.576 129.939 192.761 130.82 190.868 130.82ZM43.0261 115.43C41.4365 115.43 39.912 116.17 38.788 117.488C37.664 118.805 37.0325 120.592 37.0325 122.456C37.0325 124.319 37.664 126.106 38.788 127.424C39.912 128.742 41.4365 129.482 43.0261 129.482H190.868C192.458 129.482 193.982 128.742 195.106 127.424C196.231 126.106 196.862 124.319 196.862 122.456C196.862 120.592 196.231 118.805 195.106 117.488C193.982 116.17 192.458 115.43 190.868 115.43H43.0261Z" fill="#3F3D56"/>
<path d="M169.748 193.385H43.2268C41.4645 193.412 39.7591 192.655 38.4539 191.267C37.1486 189.879 36.3404 187.963 36.1919 185.904C36.1283 184.806 36.2579 183.704 36.5725 182.668C36.8872 181.631 37.3802 180.681 38.021 179.876C38.6618 179.072 39.4367 178.431 40.2976 177.992C41.1586 177.553 42.0873 177.327 43.0261 177.326H169.748C171.565 177.326 173.307 178.172 174.592 179.678C175.876 181.184 176.598 183.226 176.598 185.356C176.598 187.485 175.876 189.528 174.592 191.034C173.307 192.539 171.565 193.385 169.748 193.385H169.748Z" fill="#FFC450"/>
<path d="M197.568 206.434H36.4617C36.3103 206.434 36.1651 206.363 36.058 206.238C35.951 206.112 35.8909 205.942 35.8909 205.765C35.8909 205.587 35.951 205.417 36.058 205.291C36.1651 205.166 36.3103 205.095 36.4617 205.095H197.568C197.719 205.095 197.864 205.166 197.971 205.291C198.078 205.417 198.139 205.587 198.139 205.765C198.139 205.942 198.078 206.112 197.971 206.238C197.864 206.363 197.719 206.434 197.568 206.434Z" fill="#E6E6E6"/>
<path d="M190.868 193.72H43.0261C41.1337 193.72 39.3189 192.839 37.9807 191.27C36.6426 189.701 35.8909 187.574 35.8909 185.356C35.8909 183.137 36.6426 181.01 37.9807 179.441C39.3189 177.872 41.1337 176.991 43.0261 176.991H190.868C192.761 176.991 194.576 177.872 195.914 179.441C197.252 181.01 198.004 183.137 198.004 185.356C198.004 187.574 197.252 189.701 195.914 191.27C194.576 192.839 192.761 193.72 190.868 193.72V193.72ZM43.0261 178.33C41.4365 178.33 39.912 179.07 38.788 180.387C37.664 181.705 37.0325 183.492 37.0325 185.356C37.0325 187.219 37.664 189.006 38.788 190.324C39.912 191.641 41.4365 192.382 43.0261 192.382H190.868C192.458 192.382 193.982 191.641 195.106 190.324C196.231 189.006 196.862 187.219 196.862 185.356C196.862 183.492 196.231 181.705 195.106 180.387C193.982 179.07 192.458 178.33 190.868 178.33H43.0261Z" fill="#3F3D56"/>
<path d="M131.911 59.4241H130.769V7.87109H213.342V9.20939H131.911V59.4241Z" fill="#CCCCCC"/>
<path d="M216.871 15.9871C220.637 15.9871 223.69 12.4083 223.69 7.99355C223.69 3.57884 220.637 0 216.871 0C213.105 0 210.052 3.57884 210.052 7.99355C210.052 12.4083 213.105 15.9871 216.871 15.9871Z" fill="#CCCCCC"/>
<path d="M92.2798 122.324H93.4214V92.8528H10.8484V94.1911H92.2798V122.324Z" fill="#CCCCCC"/>
<path d="M7.31895 100.969C11.085 100.969 14.1379 97.3897 14.1379 92.975C14.1379 88.5603 11.085 84.9814 7.31895 84.9814C3.55295 84.9814 0.5 88.5603 0.5 92.975C0.5 97.3897 3.55295 100.969 7.31895 100.969Z" fill="#CCCCCC"/>
<path d="M169.585 187.495H168.443V224.327H238.458V222.989H169.585V187.495Z" fill="#CCCCCC"/>
<path d="M241.988 232.198C245.754 232.198 248.806 228.619 248.806 224.204C248.806 219.79 245.754 216.211 241.988 216.211C238.222 216.211 235.169 219.79 235.169 224.204C235.169 228.619 238.222 232.198 241.988 232.198Z" fill="#CCCCCC"/>
<path d="M399.82 399.794L244.7 400C244.611 400 244.522 399.98 244.439 399.94C244.357 399.9 244.282 399.842 244.218 399.768C244.155 399.694 244.105 399.606 244.07 399.509C244.036 399.412 244.018 399.308 244.018 399.203C244.018 399.098 244.036 398.995 244.07 398.898C244.105 398.801 244.155 398.713 244.218 398.639C244.282 398.565 244.357 398.506 244.439 398.467C244.522 398.427 244.611 398.406 244.7 398.407L399.82 398.201C400.001 398.201 400.173 398.285 400.301 398.434C400.428 398.584 400.5 398.786 400.5 398.998C400.5 399.209 400.428 399.412 400.301 399.561C400.173 399.71 400.001 399.794 399.82 399.794Z" fill="#CACACA"/>
<path d="M337.329 118.777C336.973 118.123 336.414 117.657 335.77 117.478C335.126 117.3 334.448 117.422 333.88 117.819C334.719 116.452 334.087 114.116 332.771 113.172C331.281 112.102 329.399 112.279 327.661 112.492L313.415 114.236C311.773 114.437 310.085 114.654 308.622 115.554C307.16 116.454 305.957 118.211 306.042 120.144C304.925 119.664 303.733 119.474 302.548 119.589C301.376 119.805 300.222 120.808 300.097 122.19C299.896 124.408 302.144 125.688 303.974 126.296C307.372 127.425 310.771 128.554 314.169 129.683L313.121 129.945C319.809 130.631 326.541 129.489 332.789 126.61C334.221 125.948 335.671 125.156 336.673 123.787C337.676 122.418 338.113 120.33 337.329 118.777Z" fill="#E6E6E6"/>
</g>
<defs>
<clipPath id="clip0_25_826">
<rect width="400" height="400" fill="white" transform="translate(0.5)"/>
</clipPath>
</defs>
</svg>
